# xmcd
#
# Track frame offsets:
#	150
#	10895
#	25822
#	43852
#	57188
#	78299
#	94606
#	111416
#	123052
#	140503
#	154663
#
# Disc length: 2249 seconds
# Revision: 0
# Processed by: cddbd v1.5.2PL0 Copyright (c) Steve Scherf et al.
# Submitted via: dBpowerAMP V12.0
#
DISCID=8308c70b
DTITLE=Doyle Lawson and Quicksilver - Roads Well Traveled
DYEAR=2013
DGENRE=Country
TTITLE0=Dixie Road
TTITLE1=How Do You Say Goodbye to Sixty Years
TTITLE2=One Small Miracle
TTITLE3=It's Hard to Be Forgotten
TTITLE4=When Love Is All You Want
TTITLE5=Dobro Joe
TTITLE6=Say Hello to Heaven
TTITLE7=By the Waters of the Clinch
TTITLE8=The King
TTITLE9=I'm That Country
TTITLE10=Fiddlin' Will
EXTD=
EXTT0=
EXTT1=
EXTT2=
EXTT3=
EXTT4=
EXTT5=
EXTT6=
EXTT7=
EXTT8=
EXTT9=
EXTT10=
PLAYORDER=
